<?xml version="1.0" encoding="utf-8"?>
<svg xmlns="http://www.w3.org/2000/svg" xmlns:svg="http://www.w3.org/2000/svg" version="1.1" viewBox="0 0 1400 1050">
	<title>The titlepage for the Standard Ebooks edition of Dom Casmurro, by Machado de Assis</title>
	<g aria-label="DOM CASMURRO">
		<path d="m 337.9788,96.054458 q 0,9.274492 -4.06616,16.812862 -4.02047,7.53838 -10.73648,11.69591 -4.66008,2.87829 -10.41666,4.15753 Q 307.0486,130 297.68274,130 H 280.50438 V 61.971856 h 16.99561 q 9.9598,0 15.80775,1.461988 5.89364,1.416301 9.9598,3.929093 6.94444,4.340278 10.82785,11.558846 3.88341,7.218567 3.88341,17.132675 z m -9.45724,-0.137061 q 0,-7.995249 -2.78692,-13.477705 -2.78691,-5.482456 -8.31506,-8.634868 -4.02046,-2.284357 -8.54349,-3.152413 -4.52303,-0.913742 -10.82785,-0.913742 h -8.49781 v 52.494521 h 8.49781 q 6.53326,0 11.3761,-0.95943 4.88852,-0.95943 8.95467,-3.5636 5.07128,-3.24379 7.58407,-8.54349 2.55848,-5.29971 2.55848,-13.249273 z"/>
		<path d="m 408.40278,69.784356 q 4.15753,4.568713 6.35051,11.193348 2.23867,6.624634 2.23867,15.031067 0,8.406429 -2.28436,15.076759 -2.23867,6.62463 -6.30482,11.05628 -4.20322,4.6144 -9.9598,6.94445 -5.71089,2.33004 -13.06652,2.33004 -7.17288,0 -13.06652,-2.37573 -5.84795,-2.37573 -9.9598,-6.89876 -4.11184,-4.52302 -6.35051,-11.10197 -2.19298,-6.57895 -2.19298,-15.031069 0,-8.315058 2.19298,-14.894006 2.19298,-6.624634 6.3962,-11.330409 4.02047,-4.47734 9.9598,-6.853071 5.98501,-2.375731 13.02083,-2.375731 7.30994,0 13.11221,2.421419 5.84795,2.375731 9.91411,6.807383 z m -0.82237,26.224415 q 0,-13.249269 -5.93933,-20.422149 -5.93933,-7.218568 -16.21893,-7.218568 -10.37098,0 -16.31031,7.218568 -5.89364,7.17288 -5.89364,20.422149 0,13.386329 6.0307,20.513529 6.0307,7.0815 16.17325,7.0815 10.14254,0 16.12756,-7.0815 6.0307,-7.1272 6.0307,-20.513529 z"/>
		<path d="m 496.91886,130 h -9.04605 V 71.383405 l -18.91447,39.884865 h -5.39108 L 444.78984,71.383405 V 130 h -8.45212 V 61.971856 h 12.33553 l 18.13779,37.874635 17.54386,-37.874635 h 12.56396 z"/>
		<path d="m 610.72003,125.06579 q -2.51279,1.09649 -4.56871,2.05592 -2.01024,0.95943 -5.29971,2.01023 -2.78692,0.86806 -6.07639,1.46199 -3.24379,0.63962 -7.17288,0.63962 -7.40132,0 -13.47771,-2.05592 -6.0307,-2.10161 -10.50804,-6.53326 -4.38596,-4.34028 -6.85307,-11.0106 -2.4671,-6.71601 -2.4671,-15.579312 0,-8.406432 2.37573,-15.031067 2.37573,-6.624635 6.85307,-11.193348 4.34028,-4.431652 10.46235,-6.761696 6.16777,-2.330044 13.66046,-2.330044 5.48245,0 10.91922,1.324927 5.48246,1.324927 12.15278,4.660088 v 10.736476 h -0.68531 q -5.61951,-4.705775 -11.14766,-6.85307 -5.52814,-2.147295 -11.83297,-2.147295 -5.16264,0 -9.32017,1.690424 -4.11184,1.644737 -7.35563,5.162646 -3.15241,3.426535 -4.93421,8.680556 -1.73611,5.208333 -1.73611,12.061403 0,7.172882 1.91886,12.335522 1.96454,5.16265 5.02558,8.40644 3.1981,3.38085 7.44701,5.02558 4.29459,1.59905 9.04605,1.59905 6.53326,0 12.24415,-2.23867 5.71089,-2.23867 10.69079,-6.71601 h 0.63962 z"/>
		<path d="m 682.2405,130 h -9.63998 l -6.67033,-18.96016 H 636.50768 L 629.83736,130 h -9.18312 l 24.76243,-68.028144 h 12.0614 z m -19.09722,-26.72697 -11.92434,-33.3973 -11.97003,33.3973 z"/>
		<path d="m 746.99926,110.58297 q 0,3.97478 -1.87317,7.85818 -1.82749,3.88341 -5.16265,6.57895 -3.65497,2.92398 -8.54349,4.56872 -4.84284,1.64473 -11.69591,1.64473 -7.35563,0 -13.24927,-1.37061 -5.84795,-1.37062 -11.92434,-4.06616 v -11.33041 h 0.63962 q 5.16265,4.29459 11.92434,6.62464 6.7617,2.33004 12.70103,2.33004 8.40643,0 13.06652,-3.15241 4.70577,-3.15241 4.70577,-8.40643 0,-4.52303 -2.23867,-6.67032 -2.19298,-2.1473 -6.71601,-3.33517 -3.42653,-0.91374 -7.447,-1.50767 -3.97478,-0.593934 -8.45212,-1.507676 -9.04605,-1.91886 -13.43202,-6.533261 -4.34028,-4.660087 -4.34028,-12.10709 0,-8.543495 7.21857,-13.980264 7.21857,-5.482456 18.32054,-5.482456 7.17288,0 13.1579,1.370614 5.98501,1.370614 10.59941,3.380848 v 10.69079 h -0.63962 q -3.8834,-3.289474 -10.23392,-5.436769 -6.30482,-2.192983 -12.92945,-2.192983 -7.26426,0 -11.69591,3.015351 -4.38597,3.015351 -4.38597,7.766813 0,4.248904 2.19299,6.670322 2.19298,2.421418 7.72112,3.700658 2.92398,0.63962 8.31506,1.553362 5.39108,0.913743 9.13743,1.873173 7.58406,2.010234 11.42178,6.076389 3.83772,4.066159 3.83772,11.376099 z"/>
		<path d="m 827.10893,130 h -9.04606 V 71.383405 L 799.1484,111.26827 h -5.39108 L 774.97991,71.383405 V 130 h -8.45212 V 61.971856 h 12.33552 l 18.1378,37.874635 17.54386,-37.874635 h 12.56396 z"/>
		<path d="m 901.69042,102.67909 q 0,7.40132 -1.64473,12.92946 -1.59905,5.48246 -5.29971,9.13743 -3.51791,3.47222 -8.22369,5.07127 -4.70577,1.59905 -10.96491,1.59905 -6.3962,0 -11.14766,-1.69042 -4.75146,-1.69043 -7.99525,-4.9799 -3.70066,-3.74635 -5.34539,-9.04605 -1.59905,-5.29971 -1.59905,-13.02084 V 61.971856 h 9.04605 v 41.164104 q 0,5.52815 0.73099,8.72625 0.77668,3.1981 2.55848,5.80226 2.01024,2.96967 5.43677,4.47734 3.47222,1.50768 8.31506,1.50768 4.88852,0 8.31506,-1.46199 3.42653,-1.50768 5.48246,-4.52303 1.78179,-2.60416 2.51279,-5.93932 0.77668,-3.38085 0.77668,-8.36075 V 61.971856 h 9.04605 z"/>
		<path d="M 980.29239,130 H 968.5508 L 945.79861,102.95322 H 933.0519 V 130 h -9.04606 V 61.971856 h 19.05154 q 6.16776,0 10.2796,0.822368 4.11185,0.776681 7.40132,2.832602 3.70066,2.330044 5.75658,5.893641 2.10161,3.517909 2.10161,8.954678 0,7.355629 -3.70066,12.335527 -3.70066,4.93421 -10.18823,7.446998 z M 959.13925,81.114765 q 0,-2.923976 -1.0508,-5.162646 -1.00512,-2.284357 -3.38085,-3.837719 -1.96455,-1.324927 -4.66009,-1.827486 -2.69554,-0.548245 -6.35051,-0.548245 h -10.6451 v 25.67617 h 9.13742 q 4.29459,0 7.49269,-0.730995 3.1981,-0.776681 5.43677,-2.832602 2.05592,-1.91886 3.01535,-4.385965 1.00512,-2.512792 1.00512,-6.350512 z"/>
		<path d="m 1050.3509,130 h -11.7416 l -22.7522,-27.04678 h -12.7467 V 130 h -9.04608 V 61.971856 h 19.05158 q 6.1677,0 10.2796,0.822368 4.1118,0.776681 7.4013,2.832602 3.7006,2.330044 5.7566,5.893641 2.1016,3.517909 2.1016,8.954678 0,7.355629 -3.7007,12.335527 -3.7007,4.93421 -10.1882,7.446998 z m -21.1532,-48.885235 q 0,-2.923976 -1.0508,-5.162646 -1.0051,-2.284357 -3.3808,-3.837719 -1.9646,-1.324927 -4.6601,-1.827486 -2.6956,-0.548245 -6.3505,-0.548245 h -10.6451 v 25.67617 h 9.1374 q 4.2946,0 7.4927,-0.730995 3.1981,-0.776681 5.4368,-2.832602 2.0559,-1.91886 3.0153,-4.385965 1.0051,-2.512792 1.0051,-6.350512 z"/>
		<path d="m 1114.8355,69.784356 q 4.1575,4.568713 6.3505,11.193348 2.2387,6.624634 2.2387,15.031067 0,8.406429 -2.2844,15.076759 -2.2386,6.62463 -6.3048,11.05628 -4.2032,4.6144 -9.9598,6.94445 -5.7109,2.33004 -13.0665,2.33004 -7.1729,0 -13.0665,-2.37573 -5.848,-2.37573 -9.9598,-6.89876 -4.1119,-4.52302 -6.3505,-11.10197 -2.193,-6.57895 -2.193,-15.031069 0,-8.315058 2.193,-14.894006 2.1929,-6.624634 6.3962,-11.330409 4.0204,-4.47734 9.9598,-6.853071 5.985,-2.375731 13.0208,-2.375731 7.3099,0 13.1122,2.421419 5.848,2.375731 9.9141,6.807383 z m -0.8224,26.224415 q 0,-13.249269 -5.9393,-20.422149 -5.9393,-7.218568 -16.2189,-7.218568 -10.371,0 -16.3103,7.218568 -5.8937,7.17288 -5.8937,20.422149 0,13.386329 6.0307,20.513529 6.0307,7.0815 16.1733,7.0815 10.1425,0 16.1275,-7.0815 6.0307,-7.1272 6.0307,-20.513529 z"/>
	</g>
	<g aria-label="MACHADO DE ASSIS">
		<path d="m 346.91612,490 h -6.78454 v -43.96244 l -14.18585,29.91365 h -4.04331 L 307.81936,446.03756 V 490 h -6.33909 v -51.02111 h 9.25164 l 13.60335,28.40598 13.15789,-28.40598 h 9.42297 z"/>
		<path d="m 405.91831,490 h -7.22999 l -5.00274,-14.22012 H 371.6187 L 366.61596,490 h -6.88734 l 18.57182,-51.02111 h 9.04605 z m -14.32291,-20.04523 -8.94326,-25.04797 -8.97752,25.04797 z"/>
		<path d="m 458.06743,486.29934 q -1.88459,0.82237 -3.42653,1.54194 -1.50768,0.71958 -3.97478,1.50768 -2.09019,0.65104 -4.55729,1.09649 -2.43284,0.47971 -5.37966,0.47971 -5.55099,0 -10.10828,-1.54194 -4.52303,-1.5762 -7.88103,-4.89994 -3.28948,-3.25521 -5.1398,-8.25795 -1.85033,-5.03701 -1.85033,-11.68449 0,-6.30482 1.78179,-11.2733 1.7818,-4.96847 5.13981,-8.39501 3.25521,-3.32374 7.84676,-5.07127 4.62582,-1.74753 10.24534,-1.74753 4.11184,0 8.18942,0.99369 4.11184,0.9937 9.11458,3.49507 v 8.05236 h -0.51398 q -4.21463,-3.52933 -8.36074,-5.13981 -4.14611,-1.61047 -8.87473,-1.61047 -3.87198,0 -6.99013,1.26782 -3.08388,1.23355 -5.51672,3.87199 -2.36431,2.5699 -3.70066,6.51041 -1.30208,3.90625 -1.30208,9.04605 0,5.37966 1.43914,9.25165 1.47341,3.87198 3.76919,6.30482 2.39858,2.53564 5.58525,3.76919 3.22095,1.19929 6.78454,1.19929 4.89995,0 9.18312,-1.679 4.28317,-1.679 8.01809,-5.03701 h 0.47971 z"/>
		<path d="m 511.7585,490 h -6.78454 V 465.02056 H 479.51481 V 490 h -6.78454 v -51.02111 h 6.78454 v 20.01097 h 25.45915 v -20.01097 h 6.78454 z"/>
		<path d="m 570.72642,490 h -7.22999 l -5.00274,-14.22012 H 536.4268 L 531.42406,490 h -6.88733 l 18.57182,-51.02111 h 9.04605 z m -14.32292,-20.04523 -8.94325,-25.04797 -8.97753,25.04797 z"/>
		<path d="m 626.57619,464.54084 q 0,6.95587 -3.04962,12.60965 -3.01535,5.65379 -8.05235,8.77193 -3.49507,2.15872 -7.8125,3.11815 Q 603.37855,490 596.35415,490 h -12.88377 v -51.02111 h 12.74671 q 7.46985,0 11.85581,1.09649 4.42023,1.06223 7.46985,2.94682 5.20833,3.25521 8.12089,8.66914 2.91255,5.41392 2.91255,12.8495 z m -7.09293,-0.10279 q 0,-5.99644 -2.09018,-10.10828 -2.09019,-4.11184 -6.2363,-6.47615 -3.01535,-1.71327 -6.40762,-2.36431 -3.39227,-0.68531 -8.12089,-0.68531 h -6.37335 v 39.37089 h 6.37335 q 4.89995,0 8.53208,-0.71957 3.66639,-0.71957 6.716,-2.6727 3.80346,-2.43284 5.68805,-6.40762 1.91886,-3.97478 1.91886,-9.93695 z"/>
		<path d="m 680.6442,444.83827 q 3.11815,3.42653 4.76288,8.39501 1.67901,4.96847 1.67901,11.2733 0,6.30482 -1.71327,11.30756 -1.679,4.96848 -4.72862,8.29222 -3.15241,3.4608 -7.46985,5.20833 -4.28316,1.74754 -9.79989,1.74754 -5.37966,0 -9.79989,-1.7818 -4.38596,-1.7818 -7.46984,-5.17407 -3.08388,-3.39227 -4.76289,-8.32648 -1.64473,-4.93421 -1.64473,-11.2733 0,-6.23629 1.64473,-11.17051 1.64474,-4.96847 4.79715,-8.4978 3.01535,-3.35801 7.46985,-5.1398 4.48876,-1.7818 9.76562,-1.7818 5.48246,0 9.83416,1.81606 4.38596,1.7818 7.43558,5.10554 z m -0.61678,19.66831 q 0,-9.93695 -4.45449,-15.31661 -4.4545,-5.41393 -12.1642,-5.41393 -7.77824,0 -12.23273,5.41393 -4.42023,5.37966 -4.42023,15.31661 0,10.03975 4.52302,15.38514 4.52303,5.31113 12.12994,5.31113 7.60691,0 12.09567,-5.31113 4.52302,-5.34539 4.52302,-15.38514 z"/>
		<path d="m 775.62224,464.54084 q 0,6.95587 -3.04962,12.60965 -3.01535,5.65379 -8.05235,8.77193 -3.49507,2.15872 -7.8125,3.11815 Q 752.4246,490 745.4002,490 h -12.88377 v -51.02111 h 12.74671 q 7.46985,0 11.85581,1.09649 4.42023,1.06223 7.46985,2.94682 5.20833,3.25521 8.12089,8.66914 2.91255,5.41392 2.91255,12.8495 z m -7.09293,-0.10279 q 0,-5.99644 -2.09018,-10.10828 -2.09019,-4.11184 -6.2363,-6.47615 -3.01535,-1.71327 -6.40762,-2.36431 -3.39227,-0.68531 -8.12089,-0.68531 h -6.37335 v 39.37089 h 6.37335 q 4.89995,0 8.53208,-0.71957 3.66639,-0.71957 6.71601,-2.6727 3.80345,-2.43284 5.68804,-6.40762 1.91886,-3.97478 1.91886,-9.93695 z"/>
		<path d="m 825.27002,490 h -33.61431 v -51.02111 h 33.61431 v 6.0307 h -26.82977 v 13.98027 h 26.82977 v 6.0307 h -26.82977 v 18.94874 h 26.82977 z"/>
		<path d="m 910.96218,490 h -7.22999 l -5.00274,-14.22012 H 876.66257 L 871.65983,490 h -6.88734 l 18.57182,-51.02111 h 9.04605 z m -14.32291,-20.04523 -8.94326,-25.04797 -8.97752,25.04797 z"/>
		<path d="m 960.78127,475.43723 q 0,2.98108 -1.40488,5.89364 -1.37062,2.91255 -3.87199,4.93421 -2.74123,2.19298 -6.40762,3.42653 -3.63212,1.23355 -8.77193,1.23355 -5.51672,0 -9.93695,-1.02796 -4.38596,-1.02796 -8.94326,-3.04961 v -8.49781 h 0.47972 q 3.87198,3.22094 8.94326,4.96848 5.07127,1.74753 9.52576,1.74753 6.30483,0 9.79989,-2.36431 3.52933,-2.36431 3.52933,-6.30482 0,-3.39227 -1.679,-5.00275 -1.64473,-1.61047 -5.037,-2.50137 -2.56991,-0.6853 -5.58526,-1.13075 -2.98108,-0.44545 -6.33909,-1.13076 -6.78454,-1.43914 -10.07401,-4.89994 -3.25521,-3.49507 -3.25521,-9.08032 0,-6.40762 5.41393,-10.4852 5.41392,-4.11184 13.7404,-4.11184 5.37966,0 9.86842,1.02796 4.48877,1.02796 7.94957,2.53564 v 8.01809 h -0.47972 q -2.91255,-2.46711 -7.67544,-4.07758 -4.72862,-1.64474 -9.69709,-1.64474 -5.44819,0 -8.77193,2.26152 -3.28948,2.26151 -3.28948,5.82511 0,3.18667 1.64474,5.00274 1.64474,1.81606 5.79085,2.77549 2.19298,0.47972 6.23629,1.16502 4.04331,0.68531 6.85307,1.40488 5.68805,1.50768 8.56634,4.55729 2.87829,3.04962 2.87829,8.53208 z"/>
		<path d="m 1013.7528,475.43723 q 0,2.98108 -1.4049,5.89364 -1.3706,2.91255 -3.872,4.93421 -2.7412,2.19298 -6.4076,3.42653 -3.63215,1.23355 -8.77195,1.23355 -5.51672,0 -9.93695,-1.02796 -4.38597,-1.02796 -8.94326,-3.04961 v -8.49781 h 0.47972 q 3.87198,3.22094 8.94325,4.96848 5.07127,1.74753 9.52577,1.74753 6.30482,0 9.79992,-2.36431 3.5293,-2.36431 3.5293,-6.30482 0,-3.39227 -1.679,-5.00275 -1.6447,-1.61047 -5.03701,-2.50137 -2.5699,-0.6853 -5.58525,-1.13075 -2.98108,-0.44545 -6.33909,-1.13076 -6.78454,-1.43914 -10.07401,-4.89994 -3.25521,-3.49507 -3.25521,-9.08032 0,-6.40762 5.41392,-10.4852 5.41393,-4.11184 13.74041,-4.11184 5.37966,0 9.86844,1.02796 4.4887,1.02796 7.9495,2.53564 v 8.01809 h -0.4797 q -2.9125,-2.46711 -7.6754,-4.07758 -4.72863,-1.64474 -9.69711,-1.64474 -5.44819,0 -8.77192,2.26152 -3.28948,2.26151 -3.28948,5.82511 0,3.18667 1.64474,5.00274 1.64474,1.81606 5.79084,2.77549 2.19299,0.47972 6.2363,1.16502 4.04331,0.68531 6.85303,1.40488 5.6881,1.50768 8.5664,4.55729 2.8783,3.04962 2.8783,8.53208 z"/>
		<path d="m 1047.6384,490 h -20.148 v -5.20833 h 6.6817 v -40.60444 h -6.6817 v -5.20834 h 20.148 v 5.20834 h -6.6817 v 40.60444 h 6.6817 z"/>
		<path d="m 1101.3295,475.43723 q 0,2.98108 -1.4049,5.89364 -1.3706,2.91255 -3.872,4.93421 -2.7412,2.19298 -6.4076,3.42653 -3.6321,1.23355 -8.7719,1.23355 -5.5168,0 -9.937,-1.02796 -4.3859,-1.02796 -8.9432,-3.04961 v -8.49781 h 0.4797 q 3.872,3.22094 8.9432,4.96848 5.0713,1.74753 9.5258,1.74753 6.3048,0 9.7999,-2.36431 3.5293,-2.36431 3.5293,-6.30482 0,-3.39227 -1.679,-5.00275 -1.6447,-1.61047 -5.037,-2.50137 -2.5699,-0.6853 -5.5852,-1.13075 -2.9811,-0.44545 -6.3391,-1.13076 -6.7846,-1.43914 -10.074,-4.89994 -3.2552,-3.49507 -3.2552,-9.08032 0,-6.40762 5.4139,-10.4852 5.4139,-4.11184 13.7404,-4.11184 5.3796,0 9.8684,1.02796 4.4888,1.02796 7.9496,2.53564 v 8.01809 h -0.4798 q -2.9125,-2.46711 -7.6754,-4.07758 -4.7286,-1.64474 -9.6971,-1.64474 -5.4482,0 -8.7719,2.26152 -3.2895,2.26151 -3.2895,5.82511 0,3.18667 1.6447,5.00274 1.6448,1.81606 5.7909,2.77549 2.193,0.47972 6.2363,1.16502 4.0433,0.68531 6.8531,1.40488 5.688,1.50768 8.5663,4.55729 2.8783,3.04962 2.8783,8.53208 z"/>
	</g>
</svg>
